<svg xmlns="http://www.w3.org/2000/svg" viewBox="0 0 157.64 55.8"><defs><style>.cls-1{fill:#fff;}</style></defs><title>logo_full_b</title><g id="레이어_2" data-name="레이어 2"><g id="Layer_1" data-name="Layer 1"><rect width="157.64" height="55.8"/><polygon class="cls-1" points="23.24 23.24 13.95 13.95 13.95 32.53 32.53 32.53 32.53 13.95 23.24 23.24"/><path class="cls-1" d="M43.68,14h0A9.29,9.29,0,0,1,53,23.24v9.29a0,0,0,0,1,0,0H34.39a0,0,0,0,1,0,0V23.24A9.29,9.29,0,0,1,43.68,14Z"/><rect class="cls-1" x="57.55" y="16.67" width="13.14" height="13.14" transform="translate(35.21 -38.53) rotate(45)"/><polygon class="cls-1" points="75.27 13.95 84.56 23.24 75.27 32.53 75.27 13.95"/><polygon class="cls-1" points="93.85 32.53 84.56 23.24 93.85 13.95 93.85 32.53"/><path class="cls-1" d="M105,14h18.58a0,0,0,0,1,0,0v9.29a9.29,9.29,0,0,1-9.29,9.29h0A9.29,9.29,0,0,1,105,23.24V14a0,0,0,0,1,0,0Z"/><polygon class="cls-1" points="125.44 32.53 125.44 13.95 144.02 13.95 125.44 32.53"/><path class="cls-1" d="M23.14,39.76l.11.26c0-.09.07-.18.11-.27l.12-.25,1.63-3.06.07-.09a.18.18,0,0,1,.07-.05l.09,0h.89v5.51h-.9V38c0-.07,0-.15,0-.24L23.68,40.9a.35.35,0,0,1-.15.17.46.46,0,0,1-.21,0h-.14a.46.46,0,0,1-.21,0,.5.5,0,0,1-.15-.17l-1.69-3.14a2.29,2.29,0,0,1,0,.25c0,.08,0,.15,0,.22v3.56h-.91V36.28h.9l.08,0,.08.05.06.09L23,39.5Z"/><path class="cls-1" d="M46.37,41.79h-.79a.32.32,0,0,1-.22-.07.4.4,0,0,1-.13-.16l-.41-1.13H42.54l-.41,1.13a.36.36,0,0,1-.12.16.34.34,0,0,1-.22.07H41l2.17-5.51h1.05ZM42.8,39.71h1.76l-.67-1.83c0-.08-.07-.18-.1-.29a3.07,3.07,0,0,1-.11-.36c0,.13-.07.25-.11.36a1.63,1.63,0,0,1-.1.29Z"/><path class="cls-1" d="M65.63,37.28a.25.25,0,0,1-.1.12.25.25,0,0,1-.13,0,.3.3,0,0,1-.17,0L65,37.24a3.24,3.24,0,0,0-.31-.13,1.22,1.22,0,0,0-.41-.06,1.06,1.06,0,0,0-.37.06.72.72,0,0,0-.26.14.52.52,0,0,0-.17.22.82.82,0,0,0-.05.28.48.48,0,0,0,.11.32.82.82,0,0,0,.29.22,3,3,0,0,0,.4.17c.16,0,.31.1.47.15l.47.19a1.65,1.65,0,0,1,.41.28,1.15,1.15,0,0,1,.28.4,1.31,1.31,0,0,1,.11.58,1.78,1.78,0,0,1-.13.7,1.56,1.56,0,0,1-.37.57,1.67,1.67,0,0,1-.6.38,2.09,2.09,0,0,1-.81.14,2.24,2.24,0,0,1-.52-.05,2.13,2.13,0,0,1-.49-.15,3,3,0,0,1-.44-.22,2.6,2.6,0,0,1-.36-.3l.3-.49a.22.22,0,0,1,.1-.09.2.2,0,0,1,.13,0,.37.37,0,0,1,.2.08l.27.17a1.9,1.9,0,0,0,.35.18,1.45,1.45,0,0,0,.49.07,1.06,1.06,0,0,0,.68-.2.75.75,0,0,0,.24-.6.54.54,0,0,0-.11-.35.87.87,0,0,0-.29-.24,2,2,0,0,0-.41-.15l-.46-.14-.47-.19a1.38,1.38,0,0,1-.4-.28,1.17,1.17,0,0,1-.29-.42,1.75,1.75,0,0,1-.11-.64,1.52,1.52,0,0,1,.12-.59,1.46,1.46,0,0,1,.35-.5,1.64,1.64,0,0,1,.57-.36,2,2,0,0,1,.76-.13,2.57,2.57,0,0,1,.9.15,2,2,0,0,1,.7.43Z"/><path class="cls-1" d="M86.88,41.79h-1V39.38H83.27v2.41h-1V36.28h1v2.37h2.58V36.28h1Z"/><path class="cls-1" d="M114.29,41a1.47,1.47,0,0,0,.53-.09,1.15,1.15,0,0,0,.4-.28,1.25,1.25,0,0,0,.24-.44,1.7,1.7,0,0,0,.09-.57v-3.3h1v3.3a2.67,2.67,0,0,1-.16.91,2.07,2.07,0,0,1-.46.72,2.09,2.09,0,0,1-.72.47,2.74,2.74,0,0,1-1.9,0,1.92,1.92,0,0,1-.72-.47,2.07,2.07,0,0,1-.46-.72,2.67,2.67,0,0,1-.15-.91v-3.3h1v3.3a1.7,1.7,0,0,0,.09.57,1.2,1.2,0,0,0,.24.43,1.06,1.06,0,0,0,.4.29A1.44,1.44,0,0,0,114.29,41Z"/><path class="cls-1" d="M133.79,39.85v1.94h-1V36.28h1.8a3,3,0,0,1,.95.13,1.94,1.94,0,0,1,.67.36,1.36,1.36,0,0,1,.39.56,2,2,0,0,1,.13.71,1.94,1.94,0,0,1-.14.73,1.51,1.51,0,0,1-.4.57,1.94,1.94,0,0,1-.66.38,3,3,0,0,1-.94.13Zm0-.8h.77a1.45,1.45,0,0,0,.49-.07.92.92,0,0,0,.35-.2.83.83,0,0,0,.2-.32,1.16,1.16,0,0,0,.07-.42,1,1,0,0,0-.07-.4.79.79,0,0,0-.2-.31.91.91,0,0,0-.35-.19,1.75,1.75,0,0,0-.49-.07h-.77Z"/></g></g></svg>