<svg xmlns="http://www.w3.org/2000/svg" viewBox="0 0 130.07 27.9"><defs><style>.cls-1{fill:#4f42e6;}.cls-2{fill:#f95e5d;}</style></defs><title>logo_full</title><g id="레이어_2" data-name="레이어 2"><g id="Layer_1" data-name="Layer 1"><polygon class="cls-1" points="9.29 9.29 0 0 0 18.58 18.58 18.58 18.58 0 9.29 9.29"/><path class="cls-2" d="M29.73,0h0A9.29,9.29,0,0,1,39,9.29v9.29a0,0,0,0,1,0,0H20.44a0,0,0,0,1,0,0V9.29A9.29,9.29,0,0,1,29.73,0Z"/><rect class="cls-1" x="43.6" y="2.72" width="13.14" height="13.14" transform="translate(21.26 -32.75) rotate(45)"/><polygon class="cls-2" points="61.32 0 70.61 9.29 61.32 18.58 61.32 0"/><polygon class="cls-2" points="79.9 18.58 70.61 9.29 79.9 0 79.9 18.58"/><path class="cls-1" d="M91,0h18.58a0,0,0,0,1,0,0V9.29a9.29,9.29,0,0,1-9.29,9.29h0A9.29,9.29,0,0,1,91,9.29V0a0,0,0,0,1,0,0Z"/><polygon class="cls-2" points="111.49 18.58 111.49 0 130.07 0 111.49 18.58"/><path d="M9.19,25.81c0,.08.07.17.11.26,0-.09.07-.18.11-.27l.12-.25,1.63-3.06.06-.09.08,0,.09,0h.89v5.51h-.9V24.06a1.94,1.94,0,0,1,0-.24L9.73,27a.33.33,0,0,1-.15.16.37.37,0,0,1-.21.06H9.23A.37.37,0,0,1,9,27.11.39.39,0,0,1,8.87,27L7.18,23.81a2.29,2.29,0,0,1,0,.25c0,.08,0,.15,0,.22v3.56H6.3V22.33h.89l.09,0,.08,0,.06.09,1.65,3.06Z"/><path d="M32.42,27.84h-.79a.31.31,0,0,1-.22-.07.4.4,0,0,1-.13-.16l-.41-1.13H28.59l-.41,1.13a.36.36,0,0,1-.12.16.34.34,0,0,1-.22.07H27l2.17-5.51h1Zm-3.57-2.08h1.76l-.67-1.83c0-.09-.07-.18-.1-.29a3.07,3.07,0,0,1-.11-.36c0,.13-.07.25-.11.36a1.63,1.63,0,0,1-.1.29Z"/><path d="M51.68,23.33a.25.25,0,0,1-.1.12.25.25,0,0,1-.13,0,.41.41,0,0,1-.17-.05l-.22-.14a3.24,3.24,0,0,0-.31-.13,1.22,1.22,0,0,0-.41-.06,1.38,1.38,0,0,0-.37,0,1.17,1.17,0,0,0-.27.15.6.6,0,0,0-.16.22.82.82,0,0,0,0,.28.5.5,0,0,0,.11.32.82.82,0,0,0,.29.22,3,3,0,0,0,.4.17c.16,0,.31.1.47.15a4.62,4.62,0,0,1,.47.19,1.62,1.62,0,0,1,.41.27,1.49,1.49,0,0,1,.28.41,1.31,1.31,0,0,1,.11.58,1.78,1.78,0,0,1-.13.7,1.56,1.56,0,0,1-.37.57,1.67,1.67,0,0,1-.6.38,2.09,2.09,0,0,1-.81.14,3,3,0,0,1-.52,0,2.13,2.13,0,0,1-.49-.15,2.3,2.3,0,0,1-.44-.23,1.7,1.7,0,0,1-.36-.29l.3-.49a.22.22,0,0,1,.1-.09.2.2,0,0,1,.13,0,.37.37,0,0,1,.2.08l.26.17a1.5,1.5,0,0,0,.36.17,1.2,1.2,0,0,0,.49.08,1.06,1.06,0,0,0,.68-.2.75.75,0,0,0,.24-.6A.59.59,0,0,0,51,25.9a1,1,0,0,0-.29-.23,2,2,0,0,0-.41-.15l-.46-.15a4.52,4.52,0,0,1-.47-.18,1.26,1.26,0,0,1-.4-.28,1.13,1.13,0,0,1-.29-.43,1.65,1.65,0,0,1-.11-.63,1.52,1.52,0,0,1,.12-.59,1.46,1.46,0,0,1,.35-.5,1.64,1.64,0,0,1,.57-.36,2,2,0,0,1,.76-.13,2.57,2.57,0,0,1,.9.15,1.84,1.84,0,0,1,.7.43Z"/><path d="M72.93,27.84h-1V25.43H69.32v2.41h-1V22.33h1V24.7H71.9V22.33h1Z"/><path d="M100.34,27a1.29,1.29,0,0,0,.53-.1,1,1,0,0,0,.4-.27,1.25,1.25,0,0,0,.24-.44,1.7,1.7,0,0,0,.09-.57v-3.3h1v3.3a2.67,2.67,0,0,1-.15.91,2.07,2.07,0,0,1-.46.72,2.09,2.09,0,0,1-.72.47,2.59,2.59,0,0,1-1,.17,2.65,2.65,0,0,1-1-.17,2,2,0,0,1-.71-.47,2.07,2.07,0,0,1-.46-.72,2.67,2.67,0,0,1-.16-.91v-3.3h1v3.3a1.7,1.7,0,0,0,.09.57,1.07,1.07,0,0,0,.24.43,1,1,0,0,0,.4.28A1.25,1.25,0,0,0,100.34,27Z"/><path d="M119.84,25.9v1.94h-1V22.33h1.8a3,3,0,0,1,1,.13,1.94,1.94,0,0,1,.67.36,1.36,1.36,0,0,1,.39.56,2,2,0,0,1,.13.71,1.94,1.94,0,0,1-.14.73,1.51,1.51,0,0,1-.4.57,1.94,1.94,0,0,1-.66.38,3,3,0,0,1-.94.13Zm0-.8h.77a1.45,1.45,0,0,0,.49-.07,1,1,0,0,0,.35-.2.83.83,0,0,0,.2-.32,1.16,1.16,0,0,0,.07-.42,1,1,0,0,0-.07-.4.79.79,0,0,0-.2-.31,1,1,0,0,0-.35-.19,1.45,1.45,0,0,0-.49-.07h-.77Z"/></g></g></svg>