<svg xmlns="http://www.w3.org/2000/svg" viewBox="0 0 226.77 226.77"><defs><style>.cls-1{fill:#4f42e6;}.cls-2{fill:#f95e5d;}.cls-3{fill:none;}</style></defs><title>logo_min</title><g id="레이어_2" data-name="레이어 2"><g id="Layer_1" data-name="Layer 1"><polygon class="cls-1" points="153.39 118.39 73.39 118.39 73.39 38.39 153.39 118.39"/><polygon class="cls-2" points="153.39 118.39 113.39 78.39 153.39 38.39 153.39 118.39"/><path d="M28.74,177.33c.2.46.39.93.58,1.4.18-.48.38-1,.58-1.43s.41-.92.64-1.35l8.61-16.11a2.49,2.49,0,0,1,.33-.48,1.1,1.1,0,0,1,.39-.27,2.17,2.17,0,0,1,.47-.1l.62,0h4.09v29.09H40.28V169.27c0-.34,0-.73,0-1.14s0-.84.09-1.27l-8.79,16.5a2.3,2.3,0,0,1-.79.87,2,2,0,0,1-1.12.31H29a2,2,0,0,1-1.12-.31,2.3,2.3,0,0,1-.79-.87L18.13,166.8c.05.44.09.87.11,1.3s0,.81,0,1.17v18.79H13.5V159h4.09l.62,0a2.17,2.17,0,0,1,.47.1,1.23,1.23,0,0,1,.4.27,2.12,2.12,0,0,1,.34.48L28.11,176C28.34,176.42,28.55,176.87,28.74,177.33Z"/><path d="M80.51,188.06H76.33a1.82,1.82,0,0,1-1.16-.35,1.93,1.93,0,0,1-.65-.87l-2.17-5.94h-12l-2.18,5.94a1.89,1.89,0,0,1-1.79,1.22h-4.2L63.56,159h5.53Zm-18.83-11H71l-3.54-9.68c-.16-.43-.34-.93-.53-1.52s-.39-1.21-.58-1.9c-.19.69-.37,1.32-.55,1.91s-.36,1.11-.53,1.55Z"/><path d="M103.13,164.26a1.47,1.47,0,0,1-.52.63,1.27,1.27,0,0,1-.69.18,1.76,1.76,0,0,1-.91-.31c-.33-.21-.73-.44-1.18-.7a10.52,10.52,0,0,0-1.6-.69,6.66,6.66,0,0,0-2.16-.31,6.42,6.42,0,0,0-2,.27,4.16,4.16,0,0,0-1.4.75,3,3,0,0,0-.86,1.16,3.75,3.75,0,0,0-.28,1.48,2.6,2.6,0,0,0,.57,1.71,4.84,4.84,0,0,0,1.52,1.17,14,14,0,0,0,2.15.86c.81.26,1.63.53,2.47.82a21.84,21.84,0,0,1,2.46,1,8.7,8.7,0,0,1,2.16,1.45,6.52,6.52,0,0,1,1.51,2.14A7.33,7.33,0,0,1,105,179a10,10,0,0,1-.68,3.69,8.42,8.42,0,0,1-2,3,9.25,9.25,0,0,1-3.17,2,11.6,11.6,0,0,1-4.28.74,13.2,13.2,0,0,1-2.74-.28,13.94,13.94,0,0,1-4.9-2,11.83,11.83,0,0,1-1.92-1.57L86.89,182a1.87,1.87,0,0,1,.54-.47,1.24,1.24,0,0,1,.69-.2,1.92,1.92,0,0,1,1.09.42c.38.27.84.58,1.37.91a10.86,10.86,0,0,0,1.87.92A7.37,7.37,0,0,0,95,184a5.3,5.3,0,0,0,3.58-1.1,3.92,3.92,0,0,0,1.27-3.15,2.9,2.9,0,0,0-.58-1.87,4.61,4.61,0,0,0-1.51-1.21,11.31,11.31,0,0,0-2.16-.84c-.8-.23-1.62-.47-2.45-.74a21.27,21.27,0,0,1-2.46-1,7.74,7.74,0,0,1-2.15-1.47,6.71,6.71,0,0,1-1.52-2.26,8.68,8.68,0,0,1-.57-3.35A8,8,0,0,1,89,161.23a9.21,9.21,0,0,1,3-1.87,10.88,10.88,0,0,1,4.05-.71,13.48,13.48,0,0,1,4.74.81,10.45,10.45,0,0,1,3.7,2.25Z"/><path d="M137.69,188.06h-5.45V175.35H118.6v12.71h-5.45V159h5.45v12.52h13.64V159h5.45Z"/><path d="M173.56,183.7a7.28,7.28,0,0,0,2.8-.52,5.86,5.86,0,0,0,2.1-1.47,6.39,6.39,0,0,0,1.3-2.3,9.19,9.19,0,0,0,.46-3V159h5.41V176.4a13.28,13.28,0,0,1-.84,4.79,10.74,10.74,0,0,1-2.4,3.81,11.11,11.11,0,0,1-3.8,2.49,14.51,14.51,0,0,1-10.06,0,10.65,10.65,0,0,1-6.19-6.3,13.5,13.5,0,0,1-.83-4.79V159h5.41v17.41a9.47,9.47,0,0,0,.45,3,6.68,6.68,0,0,0,1.3,2.31,5.8,5.8,0,0,0,2.08,1.48A7.33,7.33,0,0,0,173.56,183.7Z"/><path d="M198.28,177.82v10.24h-5.41V159h9.48a16.48,16.48,0,0,1,5.05.69,9.65,9.65,0,0,1,3.52,1.91,7.53,7.53,0,0,1,2.05,2.94,11,11,0,0,1,0,7.61,8.1,8.1,0,0,1-2.11,3,10,10,0,0,1-3.52,2,15.68,15.68,0,0,1-5,.7Zm0-4.22h4.07a8,8,0,0,0,2.59-.37,4.84,4.84,0,0,0,1.83-1.07,4.29,4.29,0,0,0,1.09-1.69,6.46,6.46,0,0,0,.36-2.22,5.87,5.87,0,0,0-.36-2.11,4.08,4.08,0,0,0-1.09-1.61,4.77,4.77,0,0,0-1.83-1,8.68,8.68,0,0,0-2.59-.35h-4.07Z"/><rect class="cls-3" width="226.77" height="226.77"/></g></g></svg>