<svg xmlns="http://www.w3.org/2000/svg" viewBox="0 0 139.51 41.85"><defs><style>.cls-1{fill:none;}.cls-2{fill:#f95e5d;}.cls-3{fill:#4f42e6;}</style></defs><title>logo_mid</title><g id="레이어_2" data-name="레이어 2"><g id="Layer_1" data-name="Layer 1"><rect class="cls-1" width="139.51" height="41.85"/><polygon class="cls-2" points="72.54 27.9 72.54 13.95 86.5 27.9 86.5 13.95 72.54 27.9"/><polygon class="cls-3" points="20.93 20.93 13.95 13.95 13.95 27.9 27.9 27.9 27.9 13.95 20.93 20.93"/><path class="cls-2" d="M40.46,14h0a7,7,0,0,1,7,7v7a0,0,0,0,1,0,0h-14a0,0,0,0,1,0,0v-7a7,7,0,0,1,7-7Z"/><rect class="cls-3" x="55.06" y="15.99" width="9.86" height="9.86" transform="translate(32.37 -36.29) rotate(45)"/><path class="cls-3" d="M92.07,14h14a0,0,0,0,1,0,0v7a7,7,0,0,1-7,7h0a7,7,0,0,1-7-7V14a0,0,0,0,1,0,0Z"/><polygon class="cls-2" points="111.61 27.9 111.61 13.95 125.56 13.95 111.61 27.9"/></g></g></svg>